<?xml version="1.0" standalone="no"?>
<!DOCTYPE svg PUBLIC "-//W3C//DTD SVG 20010904//EN"
 "http://www.w3.org/TR/2001/REC-SVG-20010904/DTD/svg10.dtd">
<svg version="1.0" xmlns="http://www.w3.org/2000/svg"
 width="128.000000pt" height="128.000000pt" viewBox="0 0 128.000000 128.000000"
 preserveAspectRatio="xMidYMid meet">
<metadata>
Created by potrace 1.14, written by Peter Selinger 2001-2017
</metadata>
<g transform="translate(0.000000,128.000000) scale(0.100000,-0.100000)"
fill="#000000" stroke="none">
<path d="M761 1258 c-155 -24 -305 -157 -353 -313 -5 -16 -12 -60 -15 -96 -24
-296 245 -533 536 -473 36 8 65 13 66 11 1 -1 30 -76 65 -167 35 -91 70 -173
78 -182 18 -22 65 -23 81 -4 22 26 16 52 -53 230 l-69 176 45 43 c54 51 88 98
113 157 17 37 20 67 20 180 0 130 -1 137 -30 194 -90 178 -283 275 -484 244z
m246 -139 c60 -33 112 -89 146 -158 28 -57 32 -75 32 -146 0 -72 -4 -89 -33
-148 -58 -118 -160 -186 -292 -194 -134 -9 -133 -10 -29 150 l91 139 -23 16
c-13 9 -50 34 -82 55 l-58 37 -91 -139 -91 -140 -19 24 c-42 54 -62 117 -62
200 0 70 4 89 32 147 87 181 306 253 479 157z"/>
<path d="M178 1195 c-81 -30 -146 -104 -163 -185 -13 -58 -9 -729 4 -777 16
-60 68 -123 126 -152 l49 -26 381 -3 c330 -2 386 -1 422 13 24 9 45 20 48 25
3 4 -5 31 -17 59 l-21 51 -26 -17 c-23 -16 -61 -17 -388 -18 -199 0 -364 3
-368 7 -4 3 17 51 46 105 80 150 64 142 153 68 97 -81 119 -83 164 -18 l23 32
-31 16 c-17 9 -73 51 -124 95 -52 43 -103 81 -113 84 -42 13 -49 5 -143 -169
-52 -95 -64 -115 -71 -115 -4 0 -7 161 -7 358 0 337 1 359 20 393 32 57 67 72
173 73 l92 1 34 40 c19 22 43 48 54 57 19 17 13 17 -130 17 -102 0 -162 -5
-187 -14z"/>
</g>
</svg>
