<svg id="Layer_1" data-name="Layer 1" xmlns="http://www.w3.org/2000/svg" width="100" height="100" viewBox="0 0 100 100">
  <defs>
    <style>
      .cls-1 {
        fill: #fff;
      }
    </style>
  </defs>
  <rect width="100" height="100" rx="26.8"/>
  <path class="cls-1" d="M73.68,26.32h0a8.79,8.79,0,0,0-12.44,0L50,37.56,38.76,26.32a8.79,8.79,0,0,0-12.44,0h0a8.79,8.79,0,0,0,0,12.44L37.56,50,26.32,61.24a8.79,8.79,0,0,0,0,12.44h0a8.79,8.79,0,0,0,12.44,0L50,62.44,61.24,73.68a8.79,8.79,0,0,0,12.44,0h0a8.79,8.79,0,0,0,0-12.44L62.44,50,73.68,38.76A8.79,8.79,0,0,0,73.68,26.32Z"/>
</svg>
