<svg id="Layer_1" data-name="Layer 1" xmlns="http://www.w3.org/2000/svg" width="56" height="56" viewBox="0 0 56 56">
  <defs>
    <style>
      .cls-1 {
        fill: #d8dfe3;
      }

      .cls-2 {
        fill: #ebecec;
      }

      .cls-3 {
        fill: #0dd34f;
      }
    </style>
  </defs>
  <g id="Group_4" data-name="Group 4">
    <path id="Path_1" data-name="Path 1" class="cls-1" d="M49.42,1.77H6.65A4.94,4.94,0,0,0,1.7,6.69v42.8a4.94,4.94,0,0,0,4.94,4.94H49.42a4.94,4.94,0,0,0,4.94-4.92V6.71a4.93,4.93,0,0,0-4.91-4.94Z"/>
    <path id="Path_2" data-name="Path 2" class="cls-2" d="M49.42.14H6.64A6.58,6.58,0,0,0,.06,6.72V49.49a6.58,6.58,0,0,0,6.58,6.58H49.42A6.58,6.58,0,0,0,56,49.49V6.72A6.58,6.58,0,0,0,49.42.14Zm0,3.29a3.29,3.29,0,0,1,3.29,3.29V13.3H42.88V3.43ZM42.88,29.76h9.84v9.86H42.88Zm0-3.3V16.59h9.84v9.87Zm-3.33-23V13.3H29.68V3.43ZM29.68,16.55h9.87v9.91H29.68Zm0,13.13h9.87v9.94H29.68ZM26.39,3.43V13.3H16.52V3.43ZM16.52,16.55h9.87v9.91H16.52Zm0,13.13h9.87v9.94H16.52ZM3.36,6.72A3.29,3.29,0,0,1,6.65,3.43h6.58V13.3H3.36Zm0,9.87h9.87v9.87H3.36Zm0,13.17h9.87v9.86H3.36Zm3.29,23a3.29,3.29,0,0,1-3.29-3.29v-6.6h9.87v9.89Zm9.87,0V42.89h9.87v9.89Zm13.16,0V42.89h9.87v9.89Zm19.75,0H42.88V42.89h9.84v6.58a3.3,3.3,0,0,1-3.3,3.28Z"/>
    <path id="Path_3" data-name="Path 3" class="cls-3" d="M6.64,52.78A3.28,3.28,0,0,1,3.36,49.5h0a3.28,3.28,0,0,1,.39-1.56L15.27,26.54a3.29,3.29,0,0,1,4.45-1.34,4,4,0,0,1,.77.58l10,10,16-30.62a3.29,3.29,0,0,1,5.82,3.06h0L34.24,42.8a3.29,3.29,0,0,1-4.44,1.39,3.41,3.41,0,0,1-.81-.6l-10-10L9.54,51.06A3.27,3.27,0,0,1,6.64,52.78Z"/>
  </g>
</svg>
