<svg xmlns="http://www.w3.org/2000/svg" width="64" height="64" viewBox="0 0 64 64">
  <defs>
    <style>
      .cls-1 {
        fill: #e1e8ed;
      }

      .cls-2 {
        fill: #0dd34f;
      }

      .cls-3 {
        fill: #a0acb4;
      }
    </style>
  </defs>
  <g id="logo_color" data-name="logo color">
    <circle class="cls-1" cx="41.54" cy="23.33" r="20.37"/>
    <path class="cls-1" d="M47.56,48.3a25.55,25.55,0,0,1-16.39-1.45c-.45-.2-.89-.41-1.33-.63a16.94,16.94,0,0,1-2.57-1.41,16.56,16.56,0,0,1-2.1-1.63v0A25.75,25.75,0,0,1,20,9.29l-.59-2L6,8.56,3,18l1,20.53-.22.28.74,15.78L8.88,58l5.8.09.2.06.12,0,29.73.49L49.84,56V54.17Z"/>
    <path class="cls-2" d="M24,49.47a2.8,2.8,0,0,0,4.13-.61l1.73-2.64a25.17,25.17,0,0,1-4.66-3.06v0l-7.42-6.25a2.78,2.78,0,0,0-4.24.8L6,51.41a7.11,7.11,0,0,0,4.11,4.09l6.62-12.11Z"/>
    <path class="cls-3" d="M50.9,56.89l-1.06-2.72A7,7,0,0,1,45.17,56H12.62a7,7,0,0,1-2.47-.45A7.11,7.11,0,0,1,6,51.41a7,7,0,0,1-.47-2.51V16.35a7.08,7.08,0,0,1,7-7.06H20a25.79,25.79,0,0,1,4.9-5.57H12.62A12.64,12.64,0,0,0,0,16.35V48.9A12.63,12.63,0,0,0,12.62,61.52H45.17a12.48,12.48,0,0,0,6.76-2Z"/>
    <path class="cls-2" d="M43.84,24.84l-4.66-3.05-1.66-1.08L30.2,31.88l-1.86,2.85a16.15,16.15,0,0,0,1.41,1.46,17.53,17.53,0,0,0,4.65,3.06l.1,0a18.91,18.91,0,0,0,1.85.7l1.87-2.85L45.54,26Z"/>
    <path class="cls-3" d="M56.64,39.94c.4-.36.78-.74,1.16-1.13A22.47,22.47,0,0,0,62.46,15.2,22.46,22.46,0,0,0,33.39,2.4a24.12,24.12,0,0,0-2.82,1.32,22.72,22.72,0,0,0-3.93,2.79A22.48,22.48,0,0,0,27,40.43a22.21,22.21,0,0,0,4.66,3.06l.85.4a22.35,22.35,0,0,0,9,1.9,22,22,0,0,0,4.87-.54,21.76,21.76,0,0,0,2.86-.83l1.17,3,1.45,3.72,1.34,3.44,1.15,3,1.48,3.79a2.78,2.78,0,0,0,2.59,1.78,2.74,2.74,0,0,0,1-.19A2.8,2.8,0,0,0,61,59.34l-3.35-8.6L55.41,45l-.4-1-.8-2.06.8-.57A20.83,20.83,0,0,0,56.64,39.94ZM36.35,40a18.91,18.91,0,0,1-1.85-.7l-.1,0a17.53,17.53,0,0,1-4.65-3.06,16.15,16.15,0,0,1-1.41-1.46A17.44,17.44,0,0,1,31.18,9.29a17.11,17.11,0,0,1,4-2.21c.57-.22,1.14-.41,1.72-.57a17.19,17.19,0,0,1,9.5.08,17,17,0,0,1,2.13.78,17.68,17.68,0,0,1,3.88,2.35A17.43,17.43,0,0,1,57.79,17v0a17.34,17.34,0,0,1,0,12.56c-.1.25-.2.5-.31.75a17,17,0,0,1-2.48,4,17.32,17.32,0,0,1-2.3,2.31l-.48.39a17.62,17.62,0,0,1-6.16,3.06A17.3,17.3,0,0,1,36.35,40Z"/>
  </g>
</svg>
